<svg id="visual" viewBox="0 0 900 600" width="900" height="600" xmlns="http://www.w3.org/2000/svg" xmlns:xlink="http://www.w3.org/1999/xlink" version="1.1"><rect x="0" y="0" width="900" height="600" fill="#001220"></rect><defs><linearGradient id="grad1_0" x1="33.3%" y1="0%" x2="100%" y2="100%"><stop offset="20%" stop-color="#2b2d42" stop-opacity="1"></stop><stop offset="80%" stop-color="#2b2d42" stop-opacity="1"></stop></linearGradient></defs><defs><linearGradient id="grad1_1" x1="33.3%" y1="0%" x2="100%" y2="100%"><stop offset="20%" stop-color="#2b2d42" stop-opacity="1"></stop><stop offset="80%" stop-color="#1d2437" stop-opacity="1"></stop></linearGradient></defs><defs><linearGradient id="grad1_2" x1="33.3%" y1="0%" x2="100%" y2="100%"><stop offset="20%" stop-color="#0f1b2b" stop-opacity="1"></stop><stop offset="80%" stop-color="#1d2437" stop-opacity="1"></stop></linearGradient></defs><defs><linearGradient id="grad1_3" x1="33.3%" y1="0%" x2="100%" y2="100%"><stop offset="20%" stop-color="#0f1b2b" stop-opacity="1"></stop><stop offset="80%" stop-color="#001220" stop-opacity="1"></stop></linearGradient></defs><defs><linearGradient id="grad2_0" x1="0%" y1="0%" x2="66.7%" y2="100%"><stop offset="20%" stop-color="#2b2d42" stop-opacity="1"></stop><stop offset="80%" stop-color="#2b2d42" stop-opacity="1"></stop></linearGradient></defs><defs><linearGradient id="grad2_1" x1="0%" y1="0%" x2="66.7%" y2="100%"><stop offset="20%" stop-color="#1d2437" stop-opacity="1"></stop><stop offset="80%" stop-color="#2b2d42" stop-opacity="1"></stop></linearGradient></defs><defs><linearGradient id="grad2_2" x1="0%" y1="0%" x2="66.7%" y2="100%"><stop offset="20%" stop-color="#1d2437" stop-opacity="1"></stop><stop offset="80%" stop-color="#0f1b2b" stop-opacity="1"></stop></linearGradient></defs><defs><linearGradient id="grad2_3" x1="0%" y1="0%" x2="66.7%" y2="100%"><stop offset="20%" stop-color="#001220" stop-opacity="1"></stop><stop offset="80%" stop-color="#0f1b2b" stop-opacity="1"></stop></linearGradient></defs><g transform="translate(900, 0)"><path d="M0 374C-41.7 383 -83.5 392 -125.3 385.8C-167.2 379.5 -209.2 358 -237.5 326.8C-265.8 295.7 -280.4 255 -302.6 219.8C-324.7 184.7 -354.4 155 -367.1 119.3C-379.8 83.6 -375.4 41.8 -371 0L0 0Z" fill="#081726"></path><path d="M0 280.5C-31.3 287.3 -62.6 294 -94 289.3C-125.4 284.6 -156.9 268.5 -178.1 245.1C-199.3 221.8 -210.3 191.3 -226.9 164.9C-243.6 138.5 -265.8 116.2 -275.3 89.5C-284.8 62.7 -281.5 31.3 -278.2 0L0 0Z" fill="#162031"></path><path d="M0 187C-20.9 191.5 -41.7 196 -62.7 192.9C-83.6 189.8 -104.6 179 -118.7 163.4C-132.9 147.9 -140.2 127.5 -151.3 109.9C-162.4 92.3 -177.2 77.5 -183.6 59.6C-189.9 41.8 -187.7 20.9 -185.5 0L0 0Z" fill="#24293c"></path><path d="M0 93.5C-10.4 95.8 -20.9 98 -31.3 96.4C-41.8 94.9 -52.3 89.5 -59.4 81.7C-66.4 73.9 -70.1 63.8 -75.6 55C-81.2 46.2 -88.6 38.7 -91.8 29.8C-94.9 20.9 -93.8 10.4 -92.7 0L0 0Z" fill="#2b2d42"></path></g><g transform="translate(0, 600)"><path d="M0 -386C39.7 -381 79.5 -376 119.3 -367.1C159.1 -358.2 198.9 -345.4 235.7 -324.4C272.5 -303.4 306.1 -274.2 328.2 -238.4C350.2 -202.7 360.5 -160.4 368.1 -119.6C375.6 -78.8 380.3 -39.4 385 0L0 0Z" fill="#081726"></path><path d="M0 -289.5C29.8 -285.8 59.6 -282 89.5 -275.3C119.3 -268.7 149.2 -259.1 176.8 -243.3C204.4 -227.6 229.6 -205.6 246.1 -178.8C262.6 -152 270.4 -120.3 276 -89.7C281.7 -59.1 285.2 -29.5 288.8 0L0 0Z" fill="#162031"></path><path d="M0 -193C19.9 -190.5 39.7 -188 59.6 -183.6C79.5 -179.1 99.5 -172.7 117.9 -162.2C136.2 -151.7 153.1 -137.1 164.1 -119.2C175.1 -101.3 180.3 -80.2 184 -59.8C187.8 -39.4 190.1 -19.7 192.5 0L0 0Z" fill="#24293c"></path><path d="M0 -96.5C9.9 -95.3 19.9 -94 29.8 -91.8C39.8 -89.6 49.7 -86.4 58.9 -81.1C68.1 -75.9 76.5 -68.5 82 -59.6C87.5 -50.7 90.1 -40.1 92 -29.9C93.9 -19.7 95.1 -9.8 96.3 0L0 0Z" fill="#2b2d42"></path></g></svg>